<svg width="750" height="240" xmlns="http://www.w3.org/2000/svg" font-family="Arial" role="img">
  <title>Phase 1 Progress Tracker</title>
  <!-- Header -->
  <text x="10" y="20" font-size="18" font-weight="bold">📅 Phase 1 — Foundations, Web Development &amp; Branding</text>

  <!-- Step 1: Early Personal Branding -->
  <text x="10" y="55" font-size="15" fill="#333">Early Personal Branding</text>
  <rect x="220" y="42" width="500" height="15" rx="7" fill="#dddddd"/>
  <!-- Not started: no progress bar -->
  <text x="730" y="55" font-size="15" fill="#333" text-anchor="end">0%</text>

  <!-- Step 2: Linux Basics -->
  <text x="10" y="85" font-size="15" fill="#333">Linux Basics</text>
  <rect x="220" y="72" width="500" height="15" rx="7" fill="#dddddd"/>
  <!-- Not started: no progress bar -->
  <text x="730" y="85" font-size="15" fill="#333" text-anchor="end">0%</text>

  <!-- Step 3: Python Foundations -->
  <text x="10" y="115" font-size="15" fill="#333">Python Foundations</text>
  <rect x="220" y="102" width="500" height="15" rx="7" fill="#dddddd"/>
  <rect x="220" y="102" width="150" height="15" rx="7" fill="#2196f3"/>
  <text x="730" y="115" font-size="15" fill="#333" text-anchor="end">30%</text>

  <!-- Step 4: Web Development Basics -->
  <text x="10" y="145" font-size="15" fill="#333">Web Development Basics</text>
  <rect x="220" y="132" width="500" height="15" rx="7" fill="#dddddd"/>
  <!-- Not started: no progress bar -->
  <text x="730" y="145" font-size="15" fill="#333" text-anchor="end">0%</text>

  <!-- Step 5: Frontend Frameworks -->
  <text x="10" y="175" font-size="15" fill="#333">Frontend Frameworks</text>
  <rect x="220" y="162" width="500" height="15" rx="7" fill="#dddddd"/>
  <!-- Not started: no progress bar -->
  <text x="730" y="175" font-size="15" fill="#333" text-anchor="end">0%</text>

  <!-- Step 6: Backend & Databases -->
  <text x="10" y="205" font-size="15" fill="#333">Backend &amp; Databases</text>
  <rect x="220" y="192" width="500" height="15" rx="7" fill="#dddddd"/>
  <!-- Not started: no progress bar -->
  <text x="730" y="205" font-size="15" fill="#333" text-anchor="end">0%</text>
</svg>
